<svg width="48" height="36" viewBox="0 0 48 36" fill="none" xmlns="http://www.w3.org/2000/svg">
<path fill-rule="evenodd" clip-rule="evenodd" d="M2.67552 5.63406C2 6.93449 2 8.64296 2 12.0599V24.7399C2 28.1568 2 29.8653 2.67552 31.1657C3.24477 32.2616 4.13829 33.1551 5.23415 33.7244C6.53458 34.3999 8.24306 34.3999 11.66 34.3999H36.34C39.7569 34.3999 41.4654 34.3999 42.7658 33.7244C43.8617 33.1551 44.7552 32.2616 45.3245 31.1657C46 29.8653 46 28.1568 46 24.7399V12.0599C46 8.64296 46 6.93449 45.3245 5.63406C44.7552 4.5382 43.8617 3.64468 42.7658 3.07542C41.4654 2.3999 39.7569 2.3999 36.34 2.3999H11.66C8.24306 2.3999 6.53458 2.3999 5.23415 3.07542C4.13829 3.64468 3.24477 4.5382 2.67552 5.63406ZM20.786 15.5882H24.3372C24.252 14.717 24.0318 13.9428 23.6767 13.2658C23.3216 12.5887 22.8599 12.0181 22.2917 11.5541C21.7235 11.0854 21.0654 10.7302 20.3173 10.4888C19.5692 10.2426 18.7548 10.1195 17.8741 10.1195C16.5815 10.1195 15.4144 10.4083 14.3727 10.9859C13.331 11.5636 12.5048 12.4088 11.894 13.5214C11.2832 14.6341 10.9778 15.9907 10.9778 17.591C10.9778 19.1867 11.2785 20.5409 11.8798 21.6535C12.4811 22.7662 13.3002 23.6138 14.3372 24.1962C15.3788 24.7738 16.5578 25.0626 17.8741 25.0626C18.8732 25.0626 19.7586 24.9111 20.5304 24.6081C21.3069 24.3051 21.965 23.8979 22.5048 23.3865C23.0446 22.8704 23.4683 22.2998 23.7761 21.6748C24.0886 21.0498 24.2756 20.4154 24.3372 19.7714L20.786 19.7501C20.7245 20.1005 20.6132 20.4154 20.4522 20.6947C20.296 20.9694 20.0948 21.2037 19.8485 21.3979C19.6071 21.5873 19.3253 21.7317 19.0034 21.8311C18.6861 21.9305 18.3334 21.9802 17.9451 21.9802C17.2538 21.9802 16.6549 21.8169 16.1483 21.4902C15.6464 21.1588 15.2557 20.6687 14.9764 20.02C14.7018 19.3666 14.5645 18.557 14.5645 17.591C14.5645 16.663 14.6994 15.8723 14.9693 15.2189C15.2439 14.5655 15.6345 14.0659 16.1412 13.7203C16.6525 13.3747 17.2609 13.2018 17.9664 13.2018C18.3642 13.2018 18.7264 13.2587 19.0531 13.3723C19.3845 13.4812 19.671 13.6398 19.9125 13.8481C20.1539 14.0565 20.3481 14.3074 20.4949 14.601C20.6416 14.8945 20.7387 15.2236 20.786 15.5882ZM27.5705 24.7004C28.1103 24.9324 28.7282 25.0484 29.4242 25.0484C29.9308 25.0484 30.3854 24.9845 30.7878 24.8567C31.195 24.7288 31.5478 24.5371 31.8461 24.2814C32.1491 24.0257 32.3977 23.7132 32.5918 23.3439H32.677V24.8638H35.9441V17.449C35.9441 16.8713 35.8233 16.3576 35.5819 15.9078C35.3451 15.458 35.0089 15.0792 34.5733 14.7714C34.1377 14.4589 33.6264 14.2222 33.0392 14.0612C32.4521 13.8955 31.8105 13.8126 31.1145 13.8126C30.1391 13.8126 29.3034 13.9641 28.6074 14.2672C27.9161 14.5655 27.3716 14.9774 26.9739 15.503C26.5809 16.0238 26.3371 16.6157 26.2424 17.2785L29.4455 17.3922C29.5212 17.0418 29.6988 16.7672 29.9782 16.5683C30.2575 16.3695 30.6268 16.27 31.0861 16.27C31.5123 16.27 31.8508 16.3695 32.1017 16.5683C32.3527 16.7672 32.4782 17.0489 32.4782 17.4135V17.449C32.4782 17.6715 32.3906 17.8444 32.2154 17.9675C32.0449 18.0858 31.7703 18.1782 31.3915 18.2445C31.0127 18.306 30.5132 18.3652 29.8929 18.422C29.339 18.4694 28.8181 18.5617 28.3304 18.699C27.8427 18.8316 27.4119 19.0281 27.0378 19.2885C26.6638 19.5489 26.3702 19.8874 26.1571 20.3041C25.9441 20.7208 25.8375 21.2321 25.8375 21.8382C25.8375 22.5579 25.9914 23.1569 26.2992 23.6351C26.6117 24.1086 27.0355 24.4637 27.5705 24.7004ZM31.5051 22.5484C31.2069 22.6999 30.8707 22.7757 30.4966 22.7757C30.0989 22.7757 29.7698 22.681 29.5094 22.4916C29.2537 22.3022 29.1259 22.0276 29.1259 21.6677C29.1259 21.431 29.1851 21.2274 29.3034 21.057C29.4265 20.8818 29.6017 20.7397 29.829 20.6308C30.061 20.5219 30.3404 20.4414 30.6671 20.3893C30.8281 20.3657 30.9962 20.3396 31.1713 20.3112C31.3465 20.2828 31.517 20.2497 31.6827 20.2118C31.8484 20.1739 31.9999 20.1337 32.1373 20.091C32.2793 20.0484 32.4 20.0011 32.4995 19.949V20.9859C32.4995 21.341 32.4095 21.6535 32.2296 21.9234C32.0497 22.1886 31.8082 22.3969 31.5051 22.5484Z" fill="white"/>
</svg>
